<?xml version="1.0" encoding="UTF-8" standalone="no"?>
<!-- Created with Inkscape (http://www.inkscape.org/) -->

<svg
   width="170mm"
   height="170.00002mm"
   viewBox="0 0 170 170.00002"
   version="1.1"
   id="svg815"
   xml:space="preserve"
   inkscape:version="1.2.1 (9c6d41e410, 2022-07-14)"
   sodipodi:docname="logo_v2.svg"
   xmlns:inkscape="http://www.inkscape.org/namespaces/inkscape"
   xmlns:sodipodi="http://sodipodi.sourceforge.net/DTD/sodipodi-0.dtd"
   xmlns="http://www.w3.org/2000/svg"
   xmlns:svg="http://www.w3.org/2000/svg"><sodipodi:namedview
     id="namedview817"
     pagecolor="#ffffff"
     bordercolor="#000000"
     borderopacity="0.25"
     inkscape:showpageshadow="2"
     inkscape:pageopacity="0.0"
     inkscape:pagecheckerboard="0"
     inkscape:deskcolor="#d1d1d1"
     inkscape:document-units="mm"
     showgrid="false"
     inkscape:zoom="2.5247522"
     inkscape:cx="244.57846"
     inkscape:cy="289.92944"
     inkscape:window-width="2560"
     inkscape:window-height="1385"
     inkscape:window-x="4472"
     inkscape:window-y="-8"
     inkscape:window-maximized="1"
     inkscape:current-layer="svg815"><inkscape:grid
       type="xygrid"
       id="grid10342" /></sodipodi:namedview><defs
     id="defs812"><rect
       x="209.4922"
       y="633.51782"
       width="575.26331"
       height="119.86987"
       id="rect10338" /><rect
       x="234.13834"
       y="211.73276"
       width="322.08026"
       height="469.39694"
       id="rect9556" /></defs><g
     inkscape:label="Layer 1"
     inkscape:groupmode="layer"
     id="layer1"
     transform="matrix(0.66465356,0,0,0.66465356,14.546723,6.5708801)"><circle
       style="fill:#0074ff;fill-opacity:1;stroke:#000000;stroke-width:2;stroke-linecap:round;stroke-linejoin:bevel;stroke-miterlimit:0.6;stroke-dasharray:none"
       id="path2442"
       cx="106"
       cy="118"
       r="84"
       inkscape:export-filename="logo_v2.png"
       inkscape:export-xdpi="302.38095"
       inkscape:export-ydpi="302.38095" /><circle
       style="fill:#0066d1;fill-opacity:1;stroke:#003dff;stroke-width:3.5;stroke-linecap:round;stroke-linejoin:bevel;stroke-miterlimit:0.6;stroke-dasharray:none;stroke-opacity:1"
       id="path2442-9"
       cx="106"
       cy="118"
       r="63.164867" /></g><g
     inkscape:groupmode="layer"
     id="layer3"
     inkscape:label="Layer 3"
     transform="matrix(0.66465356,0,0,0.66465356,14.546723,6.5708801)"><path
       style="fill:#000000;fill-opacity:1;stroke:#ffffff;stroke-width:0.6;stroke-linecap:round;stroke-linejoin:bevel;stroke-miterlimit:0.6;stroke-dasharray:none;stroke-opacity:1"
       d="m 121.33752,195.63716 c 0,0 1.1972,0.0344 1.37326,0.0344 0.17606,0 1.83102,-0.92989 1.83102,-0.92989 l 1.26762,-1.75642 0.70424,-1.92864 0.35212,-2.47968 0.0704,-2.3419 -0.14084,-3.65065 -1.58455,-22.76476 -1.54932,-22.24817 -0.42253,-11.36516 0.17605,-1.61868 0.5634,-2.13527 0.77466,-1.41205 1.30284,-2.75518 0.63381,-0.96433 1.1972,-2.96182 0.70424,-2.30748 0.45775,-1.85975 0.3169,-2.13528 0.10565,-1.82532 -0.0704,-2.58298 -0.35213,-2.47972 -0.3169,-3.61619 -0.45775,-3.065148 -0.52816,-2.996273 -1.37328,-6.681339 -0.3169,-1.721994 -0.14086,-0.964318 h -0.95071 l -0.0704,0.929877 0.56339,22.075975 -0.38734,0.55104 -0.59859,-0.6888 -2.07752,-22.868092 h -0.84507 l 0.49296,22.833652 -0.49296,0.58548 -0.63382,-0.72324 -1.72538,-22.420372 -1.09157,-0.03444 0.66903,22.695892 -0.70425,0.79212 -0.88028,-0.99876 -1.30285,-22.317053 -1.05635,0.06887 -0.77467,12.019523 -0.3169,10.05645 0.0704,3.27178 0.31691,2.2386 0.80987,3.03071 1.05637,2.34193 0.70422,1.65311 1.02116,2.20415 0.77466,2.10084 0.52816,1.92862 0.21128,1.99753 -0.24648,11.60625 -0.52818,4.9249 -0.3169,4.71826 -0.38735,14.1548 -1.16197,17.39216 0.24647,10.95188 0.35213,1.68755 0.42253,1.79088 0.70425,0.99875 0.5986,0.72324 0.63382,0.55104 0.52817,0.30995 0.5986,0.3444 z"
       id="path5578" /><path
       style="fill:#000000;fill-opacity:1;stroke:#ffffff;stroke-width:0.6;stroke-linecap:round;stroke-linejoin:bevel;stroke-miterlimit:0.6;stroke-dasharray:none;stroke-opacity:1"
       d="m 93.926077,195.32897 0.548403,-0.33548 0.895075,-0.56531 0.706639,-0.70663 0.37688,-0.56532 0.235546,-0.37687 0.285508,-0.58744 0.274323,-0.50987 0.193911,-0.45729 0.09708,-0.40734 0.04423,-0.39353 0.141325,-6.59527 -0.37687,-5.13491 -0.612427,-6.54818 -0.565306,-5.84152 -0.518203,-7.34903 -0.423982,-14.93361 0.188435,-11.58886 0.329769,-0.4711 1.13062,-49.181962 -0.942185,-0.847966 -1.083511,-0.141326 h -1.083509 l -0.800862,0.329763 -0.75374,0.56531 -0.847964,1.036401 -1.271954,2.025696 -0.847963,2.402567 -1.413269,4.569591 -1.413279,6.265519 -0.989297,5.982867 -0.282649,3.95716 -0.09422,7.6788 1.08351,6.7366 2.025695,6.59529 1.366167,2.63811 0.376872,1.17773 0.329768,1.93148 -0.09423,2.16702 -0.188435,2.16702 -0.37687,3.72162 -0.942186,10.69379 -1.224844,19.64452 -0.37687,8.38544 0.04711,5.41756 0.235546,2.49678 0.659528,2.02569 0.659529,1.31907 0.847963,0.65952 1.46039,0.94219 0.753741,0.18842 0.831304,0.0943 0.822995,-0.05 z"
       id="path5742"
       sodipodi:nodetypes="cccccccccccccccccccccccccccccccccccccccccccccccccccccc" /></g><g
     aria-label="Koulu
"
     transform="matrix(0.17585625,0,0,0.17585625,15.504963,-4.9540936)"
     id="text9554"
     style="font-weight:bold;font-size:96.2908px;font-family:'Open Sans';-inkscape-font-specification:'Open Sans';text-align:center;white-space:pre;stroke:#ffffff;stroke-width:2.26772;stroke-linecap:round;stroke-linejoin:bevel;stroke-miterlimit:0.6"><g
       id="path1602"><path
         style="color:#000000;-inkscape-font-specification:'Open Sans';fill:#000000;stroke:none;stroke-linecap:butt;stroke-linejoin:miter;-inkscape-stroke:none"
         d="m 319.36381,299.34445 h -16.54998 l -18.00751,-28.96247 -6.15923,4.4196 v 24.54287 h -14.57526 v -68.73884 h 14.57526 v 31.45436 q 1.45753,-2.02173 2.86804,-4.04346 1.41051,-2.02173 2.86804,-4.04346 l 18.61873,-23.36744 h 16.17384 l -23.97867,30.41999 z"
         id="path1615" /><path
         style="color:#000000;-inkscape-font-specification:'Open Sans';fill:#ffffff;stroke:none;stroke-linecap:butt;stroke-linejoin:miter;-inkscape-stroke:none"
         d="m 264.07227,229.47266 -1.13477,1.13281 v 68.73828 l 1.13477,1.13477 h 14.57421 l 1.13477,-1.13477 v -23.96094 l 4.70117,-3.375 17.36914,27.93555 0.96289,0.53516 h 16.54883 l 0.95899,-1.73829 -23.73829,-37.64257 23.48243,-29.79102 -0.89063,-1.83398 h -16.17383 l -0.88672,0.42578 -18.61914,23.36718 -0.0332,0.0449 c -0.97507,1.35251 -1.93323,2.70397 -2.87695,4.05664 -0.26381,0.37812 -0.5384,0.75663 -0.80469,1.13476 v -27.89648 l -1.13477,-1.13281 z m 1.13281,2.26757 h 12.30859 v 30.32032 l 2.05274,0.66211 c 0.97506,-1.35251 1.93518,-2.70398 2.8789,-4.05664 0.93429,-1.33915 1.88416,-2.67828 2.84961,-4.01758 0.003,-0.004 0.005,-0.008 0.008,-0.0117 l 18.2461,-22.89649 h 13.28906 l -22.53125,28.58399 -0.0684,1.30664 23.07031,36.58008 h -13.86523 l -17.67383,-28.42774 -1.625,-0.32226 -6.1582,4.41992 -0.47266,0.91992 v 23.41016 h -12.30859 z"
         id="path1617" /></g><g
       id="path1604"><path
         style="color:#000000;-inkscape-font-specification:'Open Sans';fill:#000000;stroke:none;stroke-linecap:butt;stroke-linejoin:miter;-inkscape-stroke:none"
         d="m 374.65579,272.96792 q 0,6.58238 -1.78664,11.66021 -1.73963,5.07784 -5.12485,8.60411 -3.33821,3.47926 -8.08693,5.2659 -4.7017,1.78665 -10.62584,1.78665 -5.548,0 -10.20268,-1.78665 -4.60767,-1.78664 -8.03991,-5.2659 -3.38522,-3.52627 -5.2659,-8.60411 -1.83367,-5.07783 -1.83367,-11.66021 0,-8.74516 3.10313,-14.81036 3.10312,-6.06519 8.83919,-9.21533 5.73607,-3.15014 13.68194,-3.15014 7.38167,0 13.07073,3.15014 5.73607,3.15014 8.98024,9.21533 3.29119,6.0652 3.29119,14.81036 z m -36.34413,0 q 0,5.17187 1.12841,8.69814 1.1284,3.52628 3.52627,5.31292 2.39787,1.78665 6.25326,1.78665 3.80838,0 6.15923,-1.78665 2.39786,-1.78664 3.47925,-5.31292 1.12841,-3.52627 1.12841,-8.69814 0,-5.21889 -1.12841,-8.65113 -1.08139,-3.47926 -3.47925,-5.21889 -2.39787,-1.73962 -6.25326,-1.73962 -5.68906,0 -8.27499,3.90241 -2.53892,3.90241 -2.53892,11.70723 z"
         id="path1621" /><path
         style="color:#000000;-inkscape-font-specification:'Open Sans';fill:#ffffff;stroke:none;stroke-linecap:butt;stroke-linejoin:miter;-inkscape-stroke:none"
         d="m 349.31445,244.6582 c -5.44708,0 -10.21084,1.08459 -14.22851,3.29102 -4.01755,2.20636 -7.14122,5.46661 -9.30274,9.6914 -2.1694,4.24019 -3.22851,9.36392 -3.22851,15.32813 0,4.49354 0.62674,8.5125 1.90234,12.04492 l 0.002,0.008 c 1.30106,3.51285 3.13926,6.52478 5.51172,8.9961 l 0.0117,0.0117 c 2.39816,2.43101 5.22094,4.27891 8.43555,5.52539 l 0.004,0.002 c 3.24382,1.24511 6.789,1.86133 10.60938,1.86133 4.06199,0 7.74398,-0.61298 11.02539,-1.85938 3.31089,-1.24567 6.16156,-3.09766 8.50586,-5.54101 2.37791,-2.47699 4.17215,-5.49906 5.37891,-9.02149 1.24027,-3.52814 1.84765,-7.53961 1.84765,-12.02734 0,-5.96952 -1.12295,-11.10262 -3.42383,-15.3457 l -0.004,-0.004 c -2.25447,-4.21277 -5.41703,-7.4644 -9.42774,-9.66797 -3.97451,-2.20076 -8.53674,-3.29297 -13.61914,-3.29297 z m 0,2.26758 c 4.75982,0 8.9106,1.0084 12.52149,3.00781 l 0.002,0.002 c 3.63397,1.99571 6.45715,4.88548 8.52734,8.75586 l 0.002,0.008 c 2.08517,3.84267 3.15429,8.58167 3.15429,14.26953 0,4.28566 -0.58247,8.04269 -1.72265,11.2832 l -0.002,0.008 c -1.11274,3.24802 -2.73538,5.9628 -4.87109,8.1875 -2.10664,2.19565 -4.64724,3.85372 -7.66797,4.99023 h -0.004 c -2.98665,1.13493 -6.38722,1.71289 -10.22266,1.71289 -3.57537,0 -6.8316,-0.57289 -9.79297,-1.70898 l -0.004,-0.002 c -2.92406,-1.13446 -5.45529,-2.79461 -7.63085,-4.99804 -2.13698,-2.22749 -3.8083,-4.94784 -5.01368,-8.19922 -1.16928,-3.23801 -1.76757,-6.99048 -1.76757,-11.27344 0,-5.69599 1.01236,-10.44818 2.98046,-14.29492 1.97597,-3.86212 4.74447,-6.74446 8.375,-8.73828 3.63042,-1.99376 7.98932,-3.00977 13.13672,-3.00977 z m -0.18945,9.29883 c -4.05196,0 -7.28331,1.48939 -9.21875,4.41016 l -0.006,0.008 c -1.88105,2.89123 -2.72266,7.00001 -2.72266,12.32617 0,3.53037 0.38033,6.53887 1.18164,9.04297 0.80638,2.51995 2.11285,4.52324 3.92969,5.87695 1.83205,1.36506 4.18428,2.01172 6.92969,2.01172 2.71554,0 5.04187,-0.65067 6.84375,-2.01953 h 0.002 c 1.81399,-1.35496 3.10204,-3.36093 3.875,-5.87891 0.79939,-2.50234 1.18164,-5.50698 1.18164,-9.0332 0,-3.55674 -0.38003,-6.54758 -1.18359,-8.99609 -0.77584,-2.49102 -2.07092,-4.47138 -3.89258,-5.79297 -1.83237,-1.32936 -4.17912,-1.95508 -6.91992,-1.95508 z m 0,2.26758 c 2.39972,0 4.22311,0.53331 5.58789,1.52343 1.37333,0.99635 2.39618,2.49485 3.0625,4.63868 l 0.006,0.0176 c 0.69902,2.12618 1.07227,4.89934 1.07227,8.29688 0,3.36545 -0.37295,6.15397 -1.07618,8.35156 l -0.004,0.0137 c -0.66779,2.17758 -1.6948,3.70999 -3.07227,4.73633 l -0.008,0.006 c -1.33239,1.01262 -3.113,1.55469 -5.47461,1.55469 -2.39511,0 -4.20911,-0.54341 -5.57422,-1.56055 -1.38032,-1.02847 -2.42685,-2.56825 -3.125,-4.75 -0.70323,-2.19759 -1.07422,-4.98611 -1.07422,-8.35156 0,-5.0793 0.85182,-8.77583 2.35547,-11.08789 2.8e-4,-4.4e-4 -2.8e-4,-0.002 0,-0.002 1.5125,-2.27674 3.79514,-3.38672 7.32422,-3.38672 z"
         id="path1623" /></g><g
       id="path1606"><path
         style="color:#000000;-inkscape-font-specification:'Open Sans';fill:#000000;stroke:none;stroke-linecap:butt;stroke-linejoin:miter;-inkscape-stroke:none"
         d="m 434.74351,246.77945 v 52.565 h -11.00198 l -1.9277,-6.72343 h -0.75227 q -1.69261,2.67997 -4.23153,4.37258 -2.53892,1.69261 -5.59502,2.4919 -3.0561,0.79929 -6.34729,0.79929 -5.64204,0 -9.82656,-1.97471 -4.18451,-2.02173 -6.53536,-6.25326 -2.30383,-4.23153 -2.30383,-11.00198 v -34.27539 h 14.34018 v 30.7021 q 0,5.64204 2.02173,8.51007 2.02173,2.86804 6.44133,2.86804 4.37258,0 6.86448,-1.97471 2.4919,-2.02173 3.47926,-5.87713 1.03437,-3.90241 1.03437,-9.49743 v -24.73094 z"
         id="path1627" /><path
         style="color:#000000;-inkscape-font-specification:'Open Sans';fill:#ffffff;stroke:none;stroke-linecap:butt;stroke-linejoin:miter;-inkscape-stroke:none"
         d="m 386.22266,245.64648 -1.13477,1.13282 v 34.27539 c 0,4.64224 0.78409,8.50086 2.44141,11.54492 l 0.006,0.008 c 1.6687,3.00367 4.03941,5.27622 7.0332,6.72266 l 0.01,0.006 c 2.96755,1.40041 6.41691,2.08203 10.31055,2.08203 2.28592,0 4.49902,-0.27787 6.63281,-0.83594 2.15259,-0.56298 4.13872,-1.44535 5.9375,-2.64453 1.43039,-0.95359 2.61984,-2.1935 3.67383,-3.57813 l 1.51953,5.29688 1.08985,0.82227 h 11.00195 l 1.13281,-1.13477 V 246.7793 l -1.13281,-1.13282 h -14.3418 l -1.13281,1.13282 v 24.73047 c 0,3.66013 -0.3409,6.73515 -0.99609,9.20703 l -0.002,0.01 c -0.61243,2.39141 -1.65023,4.09979 -3.09179,5.27149 -1.40803,1.11372 -3.41285,1.72851 -6.1543,1.72851 -2.70113,0 -4.39198,-0.79466 -5.51562,-2.38867 -1.14609,-1.62584 -1.81446,-4.22954 -1.81446,-7.85547 V 246.7793 l -1.13281,-1.13282 z m 1.13281,2.26758 h 12.07226 v 29.56836 c 0,3.89679 0.67897,6.96392 2.22852,9.16211 1.57199,2.23004 4.17748,3.34961 7.36914,3.34961 3.08574,0 5.65408,-0.70373 7.56836,-2.2207 l 0.01,-0.008 c 1.87821,-1.52383 3.15998,-3.73035 3.86328,-6.47656 0.72235,-2.72949 1.07031,-5.98355 1.07031,-9.77929 v -23.59571 h 12.07226 v 50.29688 h -9.01367 l -1.6914,-5.90235 -1.08985,-0.82226 h -0.75195 l -0.95898,0.52929 c -1.04928,1.66136 -2.34278,2.99545 -3.90235,4.03516 -1.58644,1.05763 -3.33169,1.83516 -5.2539,2.33789 -1.94101,0.50765 -3.95626,0.76172 -6.0586,0.76172 -3.62485,0 -6.72408,-0.63162 -9.33398,-1.86133 l -0.002,-0.002 c -2.58349,-1.24882 -4.56805,-3.1431 -6.0332,-5.7793 -4.7e-4,-8.4e-4 -0.001,-0.001 -0.002,-0.002 -1.412,-2.59722 -2.16211,-6.07008 -2.16211,-10.45117 z"
         id="path1629" /></g><g
       id="path1608"><path
         style="color:#000000;-inkscape-font-specification:'Open Sans';fill:#000000;stroke:none;stroke-linecap:butt;stroke-linejoin:miter;-inkscape-stroke:none"
         d="m 464.12914,299.34445 h -14.34019 v -73.15844 h 14.34019 z"
         id="path1633" /><path
         style="color:#000000;-inkscape-font-specification:'Open Sans';fill:#ffffff;stroke:none;stroke-linecap:butt;stroke-linejoin:miter;-inkscape-stroke:none"
         d="m 449.78906,225.05273 -1.13476,1.13282 v 73.1582 l 1.13476,1.13477 h 14.33985 l 1.13476,-1.13477 v -73.1582 l -1.13476,-1.13282 z m 1.13281,2.26758 h 12.07422 v 70.89063 h -12.07422 z"
         id="path1635" /></g><g
       id="path1610"
       style="display:inline"><path
         style="color:#000000;-inkscape-font-specification:'Open Sans';fill:#000000;stroke:none;stroke-linecap:butt;stroke-linejoin:miter;-inkscape-stroke:none"
         d="m 527.41401,246.77945 v 52.565 h -11.00198 l -1.9277,-6.72343 h -0.75227 q -1.69261,2.67997 -4.23153,4.37258 -2.53891,1.69261 -5.59502,2.4919 -3.0561,0.79929 -6.34729,0.79929 -5.64204,0 -9.82655,-1.97471 -4.18452,-2.02173 -6.53537,-6.25326 -2.30383,-4.23153 -2.30383,-11.00198 v -34.27539 h 14.34018 v 30.7021 q 0,5.64204 2.02173,8.51007 2.02174,2.86804 6.44133,2.86804 4.37258,0 6.86448,-1.97471 2.4919,-2.02173 3.47926,-5.87713 1.03438,-3.90241 1.03438,-9.49743 v -24.73094 z"
         id="path1639" /><path
         style="color:#000000;-inkscape-font-specification:'Open Sans';fill:#ffffff;stroke:none;stroke-linecap:butt;stroke-linejoin:miter;-inkscape-stroke:none"
         d="m 478.89258,245.64648 -1.13477,1.13282 v 34.27539 c 0,4.64224 0.78604,8.50086 2.44336,11.54492 l 0.004,0.008 c 1.6687,3.00367 4.0394,5.27622 7.0332,6.72266 l 0.01,0.006 c 2.96754,1.40041 6.4169,2.08203 10.31054,2.08203 2.28592,0 4.50098,-0.27787 6.63477,-0.83594 2.15259,-0.56298 4.13677,-1.44534 5.93555,-2.64453 1.42963,-0.95309 2.62019,-2.19249 3.67382,-3.57617 l 1.51954,5.29492 1.08984,0.82227 h 11.00195 l 1.13477,-1.13477 V 246.7793 l -1.13477,-1.13282 h -14.33984 l -1.13477,1.13282 v 24.73047 c 0,3.66013 -0.34089,6.73515 -0.99609,9.20703 l -0.002,0.01 c -0.61244,2.39141 -1.65024,4.09979 -3.0918,5.27149 -1.40803,1.11372 -3.41285,1.72851 -6.1543,1.72851 -2.70112,0 -4.39002,-0.79465 -5.51367,-2.38867 -1.14609,-1.62584 -1.81445,-4.22954 -1.81445,-7.85547 V 246.7793 l -1.13477,-1.13282 z m 1.13281,2.26758 h 12.07422 v 29.56836 c 0,3.89679 0.67896,6.96392 2.22851,9.16211 1.572,2.23004 4.17553,3.34961 7.36719,3.34961 3.08574,0 5.65408,-0.70373 7.56836,-2.2207 l 0.0117,-0.008 c 1.87573,-1.52182 3.15548,-3.72563 3.85938,-6.46679 0.72397,-2.73133 1.07226,-5.98918 1.07226,-9.78906 v -23.59571 h 12.07227 v 50.29688 h -9.01368 l -1.6914,-5.90235 -1.08985,-0.82226 h -0.75195 l -0.95898,0.52929 c -1.04928,1.66136 -2.34278,2.99545 -3.90235,4.03516 -1.58643,1.05763 -3.32973,1.83516 -5.25195,2.33789 -1.941,0.50765 -3.95821,0.76172 -6.06055,0.76172 -3.62485,0 -6.72408,-0.63162 -9.33398,-1.86133 l -0.002,-0.002 c -2.58351,-1.24882 -4.56806,-3.1431 -6.03321,-5.7793 -4.6e-4,-8.4e-4 -0.001,-0.001 -0.002,-0.002 -1.41199,-2.59722 -2.16211,-6.07008 -2.16211,-10.45117 z"
         id="path1641" /></g></g><g
     aria-label="Ruokalista"
     transform="matrix(0.17585625,0,0,0.17585625,-2.4635756,-65.238569)"
     id="text10336"
     style="font-weight:bold;font-size:88.2665px;font-family:'Open Sans';-inkscape-font-specification:'Open Sans';text-align:center;white-space:pre;shape-inside:url(#rect10338);display:inline;stroke:#ffffff;stroke-width:2.26772;stroke-linecap:round;stroke-linejoin:bevel;stroke-miterlimit:0.6"><path
       d="m 289.23658,650.81798 q 8.57668,0 14.13644,2.06875 5.60285,2.06875 8.31808,6.24934 2.71523,4.18059 2.71523,10.55922 0,4.30989 -1.63776,7.54231 -1.63776,3.23241 -4.30989,5.47355 -2.67213,2.24115 -5.77525,3.66341 l 18.53252,27.45398 h -14.82601 l -15.04151,-24.17847 h -7.11132 v 24.17847 h -13.36065 v -63.01056 z m -0.94817,10.94712 h -4.0513 v 17.02406 h 4.30989 q 6.63723,0 9.48176,-2.19805 2.88762,-2.24114 2.88762,-6.55103 0,-4.48228 -3.10312,-6.37863 -3.06002,-1.89635 -9.52485,-1.89635 z"
       id="path1581" /><path
       d="m 372.33122,665.644 v 48.18454 h -10.08513 l -1.76706,-6.16314 h -0.68958 q -1.55156,2.45664 -3.8789,4.0082 -2.32734,1.55156 -5.12877,2.28424 -2.80142,0.73268 -5.81835,0.73268 -5.17186,0 -9.00766,-1.81015 -3.8358,-1.85325 -5.99074,-5.73215 -2.11185,-3.8789 -2.11185,-10.08514 V 665.644 h 13.14516 v 28.14357 q 0,5.17186 1.85325,7.80089 1.85325,2.62903 5.90455,2.62903 4.00819,0 6.29243,-1.81015 2.28424,-1.85325 3.18932,-5.38736 0.94817,-3.57721 0.94817,-8.70597 V 665.644 Z"
       id="path1583" /><path
       d="m 429.91133,689.65007 q 0,6.03385 -1.63776,10.68852 -1.59466,4.65468 -4.69778,7.8871 -3.06002,3.18932 -7.41301,4.82707 -4.30988,1.63776 -9.74034,1.63776 -5.08567,0 -9.35246,-1.63776 -4.22369,-1.63775 -7.36991,-4.82707 -3.10312,-3.23242 -4.82707,-7.8871 -1.68086,-4.65467 -1.68086,-10.68852 0,-8.01639 2.84453,-13.57614 2.84452,-5.55976 8.10259,-8.44738 5.25806,-2.88763 12.54177,-2.88763 6.76653,0 11.98149,2.88763 5.25806,2.88762 8.23189,8.44738 3.01692,5.55975 3.01692,13.57614 z m -33.31544,0 q 0,4.74088 1.03438,7.9733 1.03437,3.23241 3.23241,4.87017 2.19805,1.63776 5.73215,1.63776 3.49101,0 5.64596,-1.63776 2.19804,-1.63776 3.18931,-4.87017 1.03438,-3.23242 1.03438,-7.9733 0,-4.78397 -1.03438,-7.93019 -0.99127,-3.18932 -3.18931,-4.78398 -2.19805,-1.59465 -5.73215,-1.59465 -5.21497,0 -7.58541,3.5772 -2.32734,3.57721 -2.32734,10.73162 z"
       id="path1585" /><path
       d="m 453.91739,646.76669 v 29.99682 q 0,2.71523 -0.21549,5.43046 -0.2155,2.71523 -0.47409,5.43046 h 0.1724 q 1.33606,-1.89635 2.71523,-3.74961 1.42226,-1.85325 3.01692,-3.5772 L 472.62231,665.644 h 14.82601 l -19.1359,20.90295 20.29957,27.28159 h -15.17081 l -13.87783,-19.52379 -5.64596,4.52538 v 14.99841 h -13.14516 v -67.06185 z"
       id="path1587" /><path
       d="m 515.2471,664.65272 q 9.69725,0 14.86911,4.22369 5.17187,4.22369 5.17187,12.84347 v 32.10866 h -9.18006 l -2.54283,-6.55103 h -0.3448 q -2.06874,2.58594 -4.22369,4.22369 -2.15494,1.63776 -4.95637,2.41354 -2.80142,0.77578 -6.80962,0.77578 -4.26679,0 -7.6716,-1.63776 -3.36171,-1.63775 -5.30116,-4.99947 -1.93945,-3.40481 -1.93945,-8.61977 0,-7.6716 5.38736,-11.29191 5.38736,-3.6634 16.16208,-4.05129 l 8.36118,-0.2586 v -2.11184 q 0,-3.7927 -1.98255,-5.55976 -1.98255,-1.76705 -5.51665,-1.76705 -3.49101,0 -6.85273,0.99127 -3.36171,0.99128 -6.72342,2.49974 l -4.35299,-8.87837 q 3.8358,-2.02565 8.57668,-3.18932 4.78397,-1.16367 9.86964,-1.16367 z m 6.98202,26.8506 -5.08567,0.1724 q -6.37863,0.1724 -8.87837,2.28424 -2.45663,2.11185 -2.45663,5.55976 0,3.01692 1.76705,4.30988 1.76706,1.24987 4.61158,1.24987 4.22369,0 7.11132,-2.49973 2.93072,-2.49974 2.93072,-7.11132 z"
       id="path1589" /><path
       d="m 561.96628,713.82854 h -13.14516 v -67.06185 h 13.14516 z"
       id="path1591" /><path
       d="m 588.90308,665.644 v 48.18454 H 575.75792 V 665.644 Z m -6.55103,-18.87731 q 2.93072,0 5.04257,1.37916 2.11184,1.33607 2.11184,5.04257 0,3.66341 -2.11184,5.08567 -2.11185,1.37916 -5.04257,1.37916 -2.97382,0 -5.08567,-1.37916 -2.06874,-1.42226 -2.06874,-5.08567 0,-3.7065 2.06874,-5.04257 2.11185,-1.37916 5.08567,-1.37916 z"
       id="path1593" /><path
       d="m 636.31185,699.51972 q 0,4.91327 -2.32734,8.31808 -2.28424,3.36171 -6.85273,5.12877 -4.56848,1.72395 -11.3781,1.72395 -5.04257,0 -8.66287,-0.64648 -3.57721,-0.64649 -7.24062,-2.15495 v -10.86091 q 3.922,1.76705 8.40429,2.93072 4.52538,1.12057 7.93019,1.12057 3.8358,0 5.47356,-1.12057 1.68085,-1.16367 1.68085,-3.01692 0,-1.20677 -0.68958,-2.15494 -0.64648,-0.99128 -2.84453,-2.19805 -2.19804,-1.24986 -6.89582,-3.23241 -4.52538,-1.89635 -7.4561,-3.8358 -2.88763,-1.93945 -4.30989,-4.56848 -1.37916,-2.67214 -1.37916,-6.76653 0,-6.68032 5.17186,-10.04204 5.21497,-3.40481 13.92094,-3.40481 4.48228,0 8.53358,0.90508 4.09439,0.90507 8.40428,2.88762 l -3.9651,9.48176 q -3.5772,-1.55156 -6.76652,-2.54284 -3.14622,-0.99127 -6.42173,-0.99127 -2.88763,0 -4.35299,0.77578 -1.46536,0.77578 -1.46536,2.37044 0,1.16367 0.73268,2.06874 0.77578,0.90508 2.93072,2.02565 2.19804,1.07747 6.42173,2.80143 4.0944,1.68085 7.11132,3.5341 3.01692,1.81016 4.65468,4.52539 1.63776,2.67213 1.63776,6.93892 z"
       id="path1595" /><path
       d="m 666.86896,704.21749 q 2.15494,0 4.18059,-0.43098 2.06874,-0.43099 4.09439,-1.07748 v 9.78345 q -2.11184,0.94817 -5.25806,1.55156 -3.10312,0.64648 -6.80963,0.64648 -4.30988,0 -7.75779,-1.37916 -3.40481,-1.42227 -5.38736,-4.87018 -1.93945,-3.49101 -1.93945,-9.69724 v -23.2303 h -6.29244 v -5.55975 l 7.24061,-4.39609 3.7927,-10.17133 h 8.40429 V 665.644 h 13.48994 v 9.86964 h -13.48994 v 23.2303 q 0,2.75832 1.55156,4.13749 1.59465,1.33606 4.18059,1.33606 z"
       id="path1597" /><path
       d="m 704.62358,664.65272 q 9.69725,0 14.86911,4.22369 5.17187,4.22369 5.17187,12.84347 v 32.10866 h -9.18006 l -2.54283,-6.55103 h -0.3448 q -2.06874,2.58594 -4.22369,4.22369 -2.15494,1.63776 -4.95637,2.41354 -2.80142,0.77578 -6.80962,0.77578 -4.26679,0 -7.6716,-1.63776 -3.36171,-1.63775 -5.30116,-4.99947 -1.93945,-3.40481 -1.93945,-8.61977 0,-7.6716 5.38736,-11.29191 5.38736,-3.6634 16.16208,-4.05129 l 8.36118,-0.2586 v -2.11184 q 0,-3.7927 -1.98255,-5.55976 -1.98255,-1.76705 -5.51665,-1.76705 -3.49101,0 -6.85273,0.99127 -3.36171,0.99128 -6.72342,2.49974 l -4.35299,-8.87837 q 3.8358,-2.02565 8.57668,-3.18932 4.78397,-1.16367 9.86964,-1.16367 z m 6.98202,26.8506 -5.08567,0.1724 q -6.37863,0.1724 -8.87837,2.28424 -2.45663,2.11185 -2.45663,5.55976 0,3.01692 1.76705,4.30988 1.76706,1.24987 4.61158,1.24987 4.22369,0 7.11132,-2.49973 2.93072,-2.49974 2.93072,-7.11132 z"
       id="path1599" /></g></svg>
